<?xml version="1.0" encoding="UTF-8" standalone="no" ?>
<!DOCTYPE svg PUBLIC "-//W3C//DTD SVG 1.1//EN" "http://www.w3.org/Graphics/SVG/1.1/DTD/svg11.dtd">
<svg xmlns="http://www.w3.org/2000/svg" xmlns:xlink="http://www.w3.org/1999/xlink" version="1.1" width="1912" height="904" viewBox="0 0 1912 904" xml:space="preserve">
<desc>Created with Fabric.js 5.3.0</desc>
<defs>
</defs>
<g transform="matrix(1.95 0.18 -0.18 1.95 883.63 352.69)"  >
<path style="stroke: rgb(27,197,38); stroke-width: 10; stroke-dasharray: none; stroke-linecap: round; stroke-dashoffset: 0; stroke-linejoin: round; stroke-miterlimit: 10; fill: rgb(255,255,255); fill-rule: nonzero; opacity: 1;"  transform=" translate(-641.5, -284.5)" d="M 408.998 314 Q 409 314 410 314 Q 411 314 412 314 Q 413 314 416 314 Q 419 314 423 313.5 Q 427 313 435 311.5 Q 443 310 452.5 308.5 Q 462 307 474 305 Q 486 303 498.5 300.5 Q 511 298 526 294 Q 541 290 568.5 284.5 Q 596 279 610.5 277.5 Q 625 276 637 274 Q 649 272 661 271 Q 673 270 686 269.5 Q 699 269 711 268.5 Q 723 268 735.5 267.5 Q 748 267 758.5 266.5 Q 769 266 778.5 265 Q 788 264 795 263.5 Q 802 263 806.5 261.5 Q 811 260 814.5 259 Q 818 258 823.5 257.5 Q 829 257 832 256 Q 835 255 836.5 255 Q 838 255 839.5 255 Q 841 255 842 255 Q 843 255 844 255 Q 845 255 847.5 255 Q 850 255 853.5 255 Q 857 255 860 255 Q 863 255 865.5 255 Q 868 255 869 255 Q 870 255 870.5 255 Q 871 255 871.5 255 Q 872 255 873 255 L 874.002 255" stroke-linecap="round" />
</g>
</svg>