<?xml version="1.0" encoding="UTF-8" standalone="no" ?>
<!DOCTYPE svg PUBLIC "-//W3C//DTD SVG 1.1//EN" "http://www.w3.org/Graphics/SVG/1.1/DTD/svg11.dtd">
<svg xmlns="http://www.w3.org/2000/svg" xmlns:xlink="http://www.w3.org/1999/xlink" version="1.1" width="1912" height="904" viewBox="0 0 1912 904" xml:space="preserve">
<desc>Created with Fabric.js 5.3.0</desc>
<defs>
</defs>
<g transform="matrix(1 0 0 1 779.5 522)"  >
<path style="stroke: rgb(0,0,0); stroke-width: 2; stroke-dasharray: none; stroke-linecap: round; stroke-dashoffset: 0; stroke-linejoin: round; stroke-miterlimit: 10; fill: none; fill-rule: nonzero; opacity: 1;"  transform=" translate(-779.5, -522)" d="M 289.998 350.998 Q 290 351 294 355.5 Q 298 360 303 365 Q 308 370 315.5 377 Q 323 384 334 393.5 Q 345 403 360.5 413.5 Q 376 424 397 437 Q 418 450 453 462 Q 488 474 507.5 476.5 Q 527 479 550.5 479.5 Q 574 480 600 472 Q 626 464 655.5 451.5 Q 685 439 711 427 Q 737 415 759 405 Q 781 395 805 386 Q 829 377 847 371 Q 865 365 879.5 362 Q 894 359 905 358.5 Q 916 358 926.5 358 Q 937 358 951 359.5 Q 965 361 975.5 364.5 Q 986 368 996.5 374.5 Q 1007 381 1018.5 388.5 Q 1030 396 1040 403.5 Q 1050 411 1059 420.5 Q 1068 430 1076 441.5 Q 1084 453 1094 467.5 Q 1104 482 1117.5 501.5 Q 1131 521 1145.5 545 Q 1160 569 1170.5 587.5 Q 1181 606 1188.5 618 Q 1196 630 1206 645 Q 1216 660 1223 666.5 Q 1230 673 1238 677.5 Q 1246 682 1251.5 685.5 Q 1257 689 1260.5 690 Q 1264 691 1265 691 Q 1266 691 1266.5 691 Q 1267 691 1267 691.5 Q 1267 692 1268 692.5 L 1269.002 693.002" stroke-linecap="round" />
</g>
<g transform="matrix(1 0 0 1 940 358)"  >
<path style="stroke: rgb(0,0,0); stroke-width: 2; stroke-dasharray: none; stroke-linecap: round; stroke-dashoffset: 0; stroke-linejoin: round; stroke-miterlimit: 10; fill: none; fill-rule: nonzero; opacity: 1;"  transform=" translate(-940, -358)" d="M 939.998 358 L 940.002 358" stroke-linecap="round" />
</g>
</svg>